<svg id="Layer_1" data-name="Layer 1" xmlns="http://www.w3.org/2000/svg" viewBox="0 0 63 63"><defs><style>.cls-1,.cls-2{fill:#0019da;}.cls-1{stroke:#0019da;stroke-width:1.74px;}.cls-2{stroke:#e5e7eb;stroke-linecap:round;stroke-linejoin:round;stroke-width:1.74px;}</style></defs><circle class="cls-1" cx="31.42" cy="31.28" r="30.34"/><path class="cls-2" d="M40.89,23.1a11.86,11.86,0,0,1,0,16.8m-3.5-13.3a6.93,6.93,0,0,1,0,9.8M24.57,26.55l6.23-6.23a.94.94,0,0,1,.51-.27,1,1,0,0,1,.57.05,1,1,0,0,1,.44.37,1,1,0,0,1,.17.55V42a1,1,0,0,1-.17.55,1,1,0,0,1-.44.37,1,1,0,0,1-.57.05.94.94,0,0,1-.51-.27l-6.23-6.23h-3a2.58,2.58,0,0,1-2.56-1.79,12.1,12.1,0,0,1,0-6.32,2.58,2.58,0,0,1,2.56-1.79Z"/></svg>