{
    "asset" : {
        "generator" : "Khronos glTF Blender I/O v3.4.50",
        "version" : "2.0"
    },
    "extensionsUsed" : [
        "KHR_materials_specular",
        "KHR_materials_ior"
    ],
    "scene" : 0,
    "scenes" : [
        {
            "name" : "Scene",
            "nodes" : [
                0,
                1,
                2,
                3
            ]
        }
    ],
    "nodes" : [
        {
            "mesh" : 0,
            "name" : "Text",
            "rotation" : [
                -0.989599883556366,
                0,
                0.1438475400209427,
                7.558480774605414e-08
            ],
            "scale" : [
                0.009999999776482582,
                0.009999999776482582,
                0.009999999776482582
            ],
            "translation" : [
                0.02142658643424511,
                1.5565115213394165,
                0.023087063804268837
            ]
        },
        {
            "mesh" : 1,
            "name" : "Text.001",
            "rotation" : [
                -0.999996542930603,
                0,
                0.002656574361026287,
                7.549794389660747e-08
            ],
            "scale" : [
                0.009999999776482582,
                0.009999999776482582,
                0.009999999776482582
            ],
            "translation" : [
                0.02142661064863205,
                2.134892225265503,
                0.023087063804268837
            ]
        },
        {
            "mesh" : 2,
            "name" : "Text.002",
            "rotation" : [
                -0.9810927510261536,
                0,
                -0.1935381442308426,
                7.364842957713336e-08
            ],
            "scale" : [
                0.009999999776482582,
                0.009999999776482582,
                0.009999999776482582
            ],
            "translation" : [
                0.02142661064863205,
                1.8400453329086304,
                0.02308707870543003
            ]
        },
        {
            "mesh" : 3,
            "name" : "Cube.003",
            "rotation" : [
                0.70710688829422,
                0,
                0,
                0.7071066498756409
            ],
            "scale" : [
                0.009999999776482582,
                0.009999999776482582,
                0.009999999776482582
            ],
            "translation" : [
                0,
                0.2746059000492096,
                0
            ]
        }
    ],
    "materials" : [
        {
            "doubleSided" : true,
            "extensions" : {
                "KHR_materials_specular" : {
                    "specularColorFactor" : [
                        0.034872939352121324,
                        0.034872939352121324,
                        0.034872939352121324
                    ]
                },
                "KHR_materials_ior" : {
                    "ior" : 1.4500000476837158
                }
            },
            "name" : "BreadAndWifi",
            "pbrMetallicRoughness" : {
                "metallicFactor" : 0
            }
        },
        {
            "doubleSided" : true,
            "name" : "Green",
            "pbrMetallicRoughness" : {
                "baseColorFactor" : [
                    0.6907951831817627,
                    1,
                    0.31441229581832886,
                    1
                ],
                "metallicFactor" : 0,
                "roughnessFactor" : 0.5
            }
        }
    ],
    "meshes" : [
        {
            "name" : "Text",
            "primitives" : [
                {
                    "attributes" : {
                        "POSITION" : 0,
                        "TEXCOORD_0" : 1,
                        "NORMAL" : 2
                    },
                    "indices" : 3,
                    "material" : 0
                }
            ]
        },
        {
            "name" : "Text.001",
            "primitives" : [
                {
                    "attributes" : {
                        "POSITION" : 4,
                        "TEXCOORD_0" : 5,
                        "NORMAL" : 6
                    },
                    "indices" : 7,
                    "material" : 0
                }
            ]
        },
        {
            "name" : "Text.002",
            "primitives" : [
                {
                    "attributes" : {
                        "POSITION" : 8,
                        "TEXCOORD_0" : 9,
                        "NORMAL" : 10
                    },
                    "indices" : 11,
                    "material" : 0
                }
            ]
        },
        {
            "name" : "Cube.006",
            "primitives" : [
                {
                    "attributes" : {
                        "POSITION" : 12,
                        "TEXCOORD_0" : 13,
                        "NORMAL" : 14
                    },
                    "indices" : 15,
                    "material" : 1
                }
            ]
        }
    ],
    "accessors" : [
        {
            "bufferView" : 0,
            "componentType" : 5126,
            "count" : 11886,
            "max" : [
                102.85297393798828,
                100.94882202148438,
                29.523393630981445
            ],
            "min" : [
                -118.59217834472656,
                31.18191909790039,
                -20.930870056152344
            ],
            "type" : "VEC3"
        },
        {
            "bufferView" : 1,
            "componentType" : 5126,
            "count" : 11886,
            "type" : "VEC2"
        },
        {
            "bufferView" : 2,
            "componentType" : 5126,
            "count" : 11886,
            "type" : "VEC3"
        },
        {
            "bufferView" : 3,
            "componentType" : 5123,
            "count" : 61068,
            "type" : "SCALAR"
        },
        {
            "bufferView" : 4,
            "componentType" : 5126,
            "count" : 19712,
            "max" : [
                158.9951629638672,
                -37.326534271240234,
                31.51131248474121
            ],
            "min" : [
                -157.36610412597656,
                -107.09308624267578,
                -18.942934036254883
            ],
            "type" : "VEC3"
        },
        {
            "bufferView" : 5,
            "componentType" : 5126,
            "count" : 19712,
            "type" : "VEC2"
        },
        {
            "bufferView" : 6,
            "componentType" : 5126,
            "count" : 19712,
            "type" : "VEC3"
        },
        {
            "bufferView" : 7,
            "componentType" : 5123,
            "count" : 101376,
            "type" : "SCALAR"
        },
        {
            "bufferView" : 8,
            "componentType" : 5126,
            "count" : 10696,
            "max" : [
                98.29642486572266,
                31.569490432739258,
                35.85477828979492
            ],
            "min" : [
                -99.67621612548828,
                -38.19740676879883,
                -11.633617401123047
            ],
            "type" : "VEC3"
        },
        {
            "bufferView" : 9,
            "componentType" : 5126,
            "count" : 10696,
            "type" : "VEC2"
        },
        {
            "bufferView" : 10,
            "componentType" : 5126,
            "count" : 10696,
            "type" : "VEC3"
        },
        {
            "bufferView" : 11,
            "componentType" : 5123,
            "count" : 54996,
            "type" : "SCALAR"
        },
        {
            "bufferView" : 12,
            "componentType" : 5126,
            "count" : 166,
            "max" : [
                81.37232971191406,
                81.37232971191406,
                56.59766387939453
            ],
            "min" : [
                -81.37232971191406,
                -81.37232971191406,
                -10.144257545471191
            ],
            "type" : "VEC3"
        },
        {
            "bufferView" : 13,
            "componentType" : 5126,
            "count" : 166,
            "type" : "VEC2"
        },
        {
            "bufferView" : 14,
            "componentType" : 5126,
            "count" : 166,
            "type" : "VEC3"
        },
        {
            "bufferView" : 15,
            "componentType" : 5123,
            "count" : 648,
            "type" : "SCALAR"
        }
    ],
    "bufferViews" : [
        {
            "buffer" : 0,
            "byteLength" : 142632,
            "byteOffset" : 0,
            "target" : 34962
        },
        {
            "buffer" : 0,
            "byteLength" : 95088,
            "byteOffset" : 142632,
            "target" : 34962
        },
        {
            "buffer" : 0,
            "byteLength" : 142632,
            "byteOffset" : 237720,
            "target" : 34962
        },
        {
            "buffer" : 0,
            "byteLength" : 122136,
            "byteOffset" : 380352,
            "target" : 34963
        },
        {
            "buffer" : 0,
            "byteLength" : 236544,
            "byteOffset" : 502488,
            "target" : 34962
        },
        {
            "buffer" : 0,
            "byteLength" : 157696,
            "byteOffset" : 739032,
            "target" : 34962
        },
        {
            "buffer" : 0,
            "byteLength" : 236544,
            "byteOffset" : 896728,
            "target" : 34962
        },
        {
            "buffer" : 0,
            "byteLength" : 202752,
            "byteOffset" : 1133272,
            "target" : 34963
        },
        {
            "buffer" : 0,
            "byteLength" : 128352,
            "byteOffset" : 1336024,
            "target" : 34962
        },
        {
            "buffer" : 0,
            "byteLength" : 85568,
            "byteOffset" : 1464376,
            "target" : 34962
        },
        {
            "buffer" : 0,
            "byteLength" : 128352,
            "byteOffset" : 1549944,
            "target" : 34962
        },
        {
            "buffer" : 0,
            "byteLength" : 109992,
            "byteOffset" : 1678296,
            "target" : 34963
        },
        {
            "buffer" : 0,
            "byteLength" : 1992,
            "byteOffset" : 1788288,
            "target" : 34962
        },
        {
            "buffer" : 0,
            "byteLength" : 1328,
            "byteOffset" : 1790280,
            "target" : 34962
        },
        {
            "buffer" : 0,
            "byteLength" : 1992,
            "byteOffset" : 1791608,
            "target" : 34962
        },
        {
            "buffer" : 0,
            "byteLength" : 1296,
            "byteOffset" : 1793600,
            "target" : 34963
        }
    ],
    "buffers" : [
        {
            "byteLength" : 1794896,
            "uri" : "data:application/octet-stream;base64,"
        }
    ]
}
