<svg xmlns="http://www.w3.org/2000/svg" width="244" height="68" viewBox="0 0 244 68"><path d="M.41,4.39H29.7v6.93H7.62V26H26.94v6.87H7.62v20.4H.41Zm53.3,34.47a14.54,14.54,0,0,1,2-7.6,14.35,14.35,0,0,1,5.59-5.39,16.73,16.73,0,0,1,8.15-1.95,16.49,16.49,0,0,1,8.15,1.95A13.48,13.48,0,0,1,83,31.26a14.88,14.88,0,0,1,2,7.6,15.29,15.29,0,0,1-2,7.68A13.88,13.88,0,0,1,77.62,52a16.55,16.55,0,0,1-8.22,2,17.57,17.57,0,0,1-8.08-1.82,14.1,14.1,0,0,1-5.59-5.19A15.71,15.71,0,0,1,53.71,38.86Zm7,.07a10,10,0,0,0,1.15,4.78A9.3,9.3,0,0,0,65,47.08a8.1,8.1,0,0,0,4.37,1.21,8.25,8.25,0,0,0,4.45-1.21,8.79,8.79,0,0,0,3-3.37A10,10,0,0,0,78,38.93a9.66,9.66,0,0,0-1.14-4.71,8.79,8.79,0,0,0-3-3.37,8.36,8.36,0,0,0-8.89,0,9.21,9.21,0,0,0-3.1,3.44A10,10,0,0,0,60.71,38.93Zm44.23,15a15.81,15.81,0,0,1-7.2-1.62,12.39,12.39,0,0,1-5.12-5,16.19,16.19,0,0,1-1.89-8.15,16.25,16.25,0,0,1,2-8.21,14,14,0,0,1,5.25-5.26,14.21,14.21,0,0,1,7.13-1.88,11.41,11.41,0,0,1,6.6,1.75,13.37,13.37,0,0,1,4.11,4l-.47,1.08.67-5.59h6.4V53.27h-6.94V46.2l.74,1.69A8.47,8.47,0,0,1,115,49.44a16.77,16.77,0,0,1-2.36,2,13.37,13.37,0,0,1-3.36,1.81A13,13,0,0,1,104.94,54Zm1.89-5.66a9.36,9.36,0,0,0,4-.81,8.21,8.21,0,0,0,3-2.29,8.33,8.33,0,0,0,1.68-3.5V35.83a7.75,7.75,0,0,0-1.81-3.23,9.42,9.42,0,0,0-7-3A8.91,8.91,0,0,0,99,34a9.43,9.43,0,0,0-1.21,4.84A9.54,9.54,0,0,0,99,43.64a9.8,9.8,0,0,0,3.36,3.44A8.85,8.85,0,0,0,106.83,48.29ZM135.7,12.67h6.93V25.13h7.55v5.45h-7.55V53.27H135.7V30.58h-5V25.13h5ZM157.26,15a3.37,3.37,0,0,1,1.28-2.69,4.19,4.19,0,0,1,2.76-1.08,4,4,0,0,1,2.76,1.08A3.42,3.42,0,0,1,165.27,15a3.42,3.42,0,0,1-1.21,2.69,4.17,4.17,0,0,1-2.76,1,4.32,4.32,0,0,1-2.76-1A3.37,3.37,0,0,1,157.26,15Zm24.09,10.1.61,6.46-.27-.87a11.11,11.11,0,0,1,4.37-4.85,12.76,12.76,0,0,1,7-1.88,9.28,9.28,0,0,1,6.53,2.35,8,8,0,0,1,2.69,6.13V53.27h-6.94V34.82a5.32,5.32,0,0,0-1.27-3.5,4.93,4.93,0,0,0-3.78-1.48,6.76,6.76,0,0,0-4.17,1.42,9,9,0,0,0-3,3.7,13,13,0,0,0-1.08,5.45V53.27h-6.94V25.06ZM226.7,67.28a19.81,19.81,0,0,1-5.72-.74,15.83,15.83,0,0,1-4.38-2.09A41.81,41.81,0,0,1,213,61.69l4.1-4.78a19.53,19.53,0,0,0,4.31,3.1,10.78,10.78,0,0,0,5.19,1.21,11.57,11.57,0,0,0,5.05-1,7,7,0,0,0,4.44-6.87l.07-7.34.47,1.35a10.3,10.3,0,0,1-4.24,4.71A14.37,14.37,0,0,1,224.75,54a13.71,13.71,0,0,1-7.14-2,14.69,14.69,0,0,1-5.18-5.32,14.88,14.88,0,0,1-2-7.6,14.91,14.91,0,0,1,2-7.81A15.4,15.4,0,0,1,218,25.87a13.73,13.73,0,0,1,7.2-2,14.85,14.85,0,0,1,6.74,1.48,10.93,10.93,0,0,1,4.44,3.57l-.4,1.14.74-5h6.4V53.41a12.25,12.25,0,0,1-2.09,7,14,14,0,0,1-5.66,5A18.46,18.46,0,0,1,226.7,67.28Zm-9.22-28.42a9.54,9.54,0,0,0,1.21,4.78,9.31,9.31,0,0,0,3.3,3.44,9.57,9.57,0,0,0,4.78,1.21,10.62,10.62,0,0,0,4.24-.81,9.64,9.64,0,0,0,3.17-2.29,9,9,0,0,0,1.95-3.43V35.9a8,8,0,0,0-1.95-3.3A9.8,9.8,0,0,0,231,30.38a10.49,10.49,0,0,0-4.18-.81A9.67,9.67,0,0,0,222,30.78a8.49,8.49,0,0,0-3.3,3.24A9.43,9.43,0,0,0,217.48,38.86Z" fill="#fff"/></svg>
