<svg id="Layer_1" data-name="Layer 1" xmlns="http://www.w3.org/2000/svg" viewBox="0 0 63 63"><defs><style>.cls-1,.cls-2{fill:none;stroke:#0019da;}.cls-1{stroke-width:1.74px;}.cls-2{stroke-linecap:round;stroke-linejoin:round;stroke-width:1.74px;}</style></defs><circle class="cls-1" cx="31.5" cy="31.5" r="30.34"/><path class="cls-2" d="M19.07,36.28l6.58-6.58a2.89,2.89,0,0,1,2-.84,2.91,2.91,0,0,1,1.09.22,3,3,0,0,1,.93.62l6.58,6.58m-1.91-1.91,1.79-1.8a3,3,0,0,1,.93-.62,3,3,0,0,1,1.1-.22,3,3,0,0,1,1.1.22,2.91,2.91,0,0,1,.93.62l3.71,3.71M21,41.06H42a1.91,1.91,0,0,0,1.91-1.91V23.85A1.91,1.91,0,0,0,42,21.94H21a1.91,1.91,0,0,0-1.91,1.91v15.3A1.91,1.91,0,0,0,21,41.06ZM34.37,26.72h0Zm.48,0a.48.48,0,0,1-.14.34.49.49,0,0,1-.34.14.48.48,0,1,1,0-1,.49.49,0,0,1,.34.14.48.48,0,0,1,.14.34Z"/></svg>