<?xml version="1.0" encoding="utf-8"?>
<!-- Generator: Adobe Illustrator 24.1.1, SVG Export Plug-In . SVG Version: 6.00 Build 0)  -->
<svg version="1.1" id="Layer_1" xmlns="http://www.w3.org/2000/svg" xmlns:xlink="http://www.w3.org/1999/xlink" x="0px" y="0px"
	 viewBox="0 0 512 512" style="enable-background:new 0 0 512 512;" xml:space="preserve">
<g>
	<path d="M51.2,409.6V256c0-56.6,22.9-107.7,60-144.8c37.1-37.1,88.2-60,144.8-60c56.6,0,107.7,22.9,144.8,60
		c37.1,37.1,60,88.2,60,144.8v153.6c0,14.1,11.5,25.6,25.6,25.6s25.6-11.5,25.6-25.6l0-153.6C512,114.6,397.4,0,256,0
		C114.6,0,0,114.6,0,256v153.6c0,14.1,11.5,25.6,25.6,25.6C39.7,435.2,51.2,423.7,51.2,409.6L51.2,409.6z"/>
	<path d="M486.4,435.2h-25.6c0,14.1-11.5,25.6-25.6,25.6h-25.6c-14.1,0-25.6-11.5-25.6-25.6v-76.8c0-14.1,11.5-25.6,25.6-25.6h51.2
		v102.4H486.4H512v-128c0-6.7-2.7-13.3-7.5-18.1s-11.4-7.5-18.1-7.5h-76.8c-42.4,0-76.8,34.4-76.8,76.8v76.8
		c0,42.4,34.4,76.8,76.8,76.8l25.6,0c42.4,0,76.8-34.4,76.8-76.8H486.4z M25.6,435.2H0C0,477.6,34.4,512,76.8,512l25.6,0
		c42.4,0,76.8-34.4,76.8-76.8v-76.8c0-42.4-34.4-76.8-76.8-76.8H25.6c-6.7,0-13.3,2.7-18.1,7.5C2.7,293.9,0,300.5,0,307.2v128H25.6
		h25.6V332.8l51.2,0c14.1,0,25.6,11.5,25.6,25.6v76.8c0,14.1-11.5,25.6-25.6,25.6H76.8c-14.1,0-25.6-11.5-25.6-25.6H25.6z"/>
</g>
</svg>
