<svg width="205" height="204" viewBox="0 0 205 204" fill="none" xmlns="http://www.w3.org/2000/svg">
<rect x="0.994827" width="203.26" height="203.26" rx="31.4436" fill="#0019DA"/>
<path fill-rule="evenodd" clip-rule="evenodd" d="M52.9123 47.1235H92.9985C94.3035 51.1952 98.12 54.1426 102.625 54.1426C107.13 54.1426 110.947 51.1952 112.251 47.1235H153.044L146.888 62.408H165.048L128.804 156.137H111.848L146.652 62.4242H111.281V155.688C109.51 152.76 106.296 150.802 102.625 150.802C98.9969 150.802 95.8153 152.714 94.0326 155.585V62.4242H59.0742L52.9123 47.1235ZM93.7442 156.08L58.955 62.408H40.5656L76.8087 156.137H93.7138C93.7239 156.118 93.734 156.099 93.7442 156.08Z" fill="white"/>
</svg>
