<svg id="Layer_1" data-name="Layer 1" xmlns="http://www.w3.org/2000/svg" viewBox="0 0 22 18"><defs><style>.cls-1{fill:#fff;fill-rule:evenodd;}</style></defs><circle cx="11" cy="9" r="7.5"/><path d="M11,2A7,7,0,1,1,4,9a7,7,0,0,1,7-7m0-1a8,8,0,1,0,8,8,8,8,0,0,0-8-8Z"/><path class="cls-1" d="M10.76,15h0A.52.52,0,0,0,11,15a.57.57,0,0,0,.24-.05h0l0,0,.17-.09c.14-.07.34-.18.58-.33a10.77,10.77,0,0,0,1.74-1.35,8,8,0,0,0,2.56-5.8,5.35,5.35,0,0,0-10.7,0,8,8,0,0,0,2.56,5.8A10.77,10.77,0,0,0,10,14.5c.24.15.44.26.58.33l.17.09,0,0ZM11,9.07A1.72,1.72,0,1,0,9.28,7.35,1.72,1.72,0,0,0,11,9.07Z"/></svg>