<svg width="512" height="512" viewBox="0 0 512 512" fill="none" xmlns="http://www.w3.org/2000/svg">
<g clip-path="url(#clip0_1_6)">
<path d="M51.2 409.6V256C51.2 199.4 74.1 148.3 111.2 111.2C148.3 74.1 199.4 51.2 256 51.2C312.6 51.2 363.7 74.1 400.8 111.2C437.9 148.3 460.8 199.4 460.8 256V409.6C460.8 423.7 472.3 435.2 486.4 435.2C500.5 435.2 512 423.7 512 409.6V256C512 114.6 397.4 0 256 0C114.6 0 0 114.6 0 256V409.6C0 423.7 11.5 435.2 25.6 435.2C39.7 435.2 51.2 423.7 51.2 409.6Z" fill="black"/>
<path d="M486.4 435.2H460.8C460.8 449.3 449.3 460.8 435.2 460.8H409.6C395.5 460.8 384 449.3 384 435.2V358.4C384 344.3 395.5 332.8 409.6 332.8H460.8V435.2H486.4H512V307.2C512 300.5 509.3 293.9 504.5 289.1C499.7 284.3 493.1 281.6 486.4 281.6H409.6C367.2 281.6 332.8 316 332.8 358.4V435.2C332.8 477.6 367.2 512 409.6 512H435.2C477.6 512 512 477.6 512 435.2H486.4V435.2ZM25.6 435.2H0C0 477.6 34.4 512 76.8 512H102.4C144.8 512 179.2 477.6 179.2 435.2V358.4C179.2 316 144.8 281.6 102.4 281.6H25.6C18.9 281.6 12.3 284.3 7.5 289.1C2.7 293.9 0 300.5 0 307.2V435.2H25.6H51.2V332.8H102.4C116.5 332.8 128 344.3 128 358.4V435.2C128 449.3 116.5 460.8 102.4 460.8H76.8C62.7 460.8 51.2 449.3 51.2 435.2H25.6V435.2Z" fill="black"/>
</g>
<defs>
<clipPath id="clip0_1_6">
<rect width="512" height="512" fill="white"/>
</clipPath>
</defs>
</svg>
