<svg width="126" height="13" viewBox="0 0 126 13" fill="none" xmlns="http://www.w3.org/2000/svg">
<path d="M121.38 10.9907C120.094 10.9907 119.215 10.0478 119.215 8.64799V7.86611C119.215 6.38434 120.076 5.40625 121.365 5.40625C122.653 5.40625 123.497 6.53076 123.497 8.20581C123.497 9.88085 122.65 10.9907 121.38 10.9907ZM121.851 3.6697C121.338 3.68045 120.834 3.80786 120.377 4.04226C119.921 4.27666 119.523 4.61192 119.215 5.02263V0.0970458H117.066V12.4725H119.166V11.4651C119.492 11.8611 119.902 12.18 120.367 12.3992C120.831 12.6184 121.338 12.7324 121.851 12.7331C124.115 12.7331 125.614 10.9087 125.614 8.17359C125.614 5.43846 124.1 3.66385 121.851 3.66385M110.653 11.1284C109.742 11.1284 109.189 10.7213 109.189 10.0068C109.189 8.83541 110.588 8.50743 112.313 8.50743H112.72V9.66415C112.72 10.203 112.07 11.1459 110.653 11.1459M109.921 12.6599C111.238 12.6599 112.249 12.1562 112.77 11.3099H112.802V12.4813H114.87V7.39171C114.87 4.57458 113.488 3.68142 111.206 3.68142C108.278 3.68142 107.493 5.14562 107.461 6.53076H109.522C109.555 5.97729 109.915 5.32425 111.151 5.32425C112.293 5.32425 112.7 5.90993 112.7 6.83824V7.28043H112.217C109.953 7.28043 108.764 7.58791 108.014 8.14138C107.701 8.3593 107.448 8.65233 107.278 8.9936C107.107 9.33486 107.025 9.71345 107.039 10.0946C107.039 11.3831 107.836 12.6511 109.921 12.6511M96.7721 10.3406V0.0970458H94.6227V12.4725H105.622V10.3406H96.7721ZM83.8872 12.4725H86.0366V5.79865H87.7937V3.92447H86.0366V1.72524H83.8872V3.92447H82.8271V5.79865H83.8872V12.4725ZM73.5704 12.4725H75.7198V6.05635H81.2984V3.92447H73.5762L73.5704 12.4725ZM64.2756 7.32143L66.0502 2.63597L67.8073 7.32143H64.2756ZM60.0089 12.4725H62.3751L63.5464 9.34788H68.5247L69.6961 12.4725H72.074L67.1894 0.0970458H64.9111L60.0089 12.4725ZM50.272 11.1284C49.3583 11.1284 48.8078 10.7213 48.8078 10.0068C48.8078 8.83541 50.2105 8.50743 51.9353 8.50743H52.3424V9.66415C52.3424 10.203 51.6922 11.1459 50.2749 11.1459M49.5428 12.6599C50.8606 12.6599 51.8855 12.1562 52.3921 11.3099H52.4185V12.4813H54.486V7.39171C54.486 4.57458 53.1008 3.68142 50.8225 3.68142C47.8941 3.68142 47.1093 5.14562 47.0771 6.53076H49.1445C49.1768 5.97729 49.5369 5.32425 50.7727 5.32425C51.9119 5.32425 52.3189 5.90993 52.3189 6.83824V7.28043H51.8328C49.5692 7.28043 48.3802 7.58791 47.6305 8.14138C47.3171 8.35915 47.0634 8.65208 46.8925 8.99332C46.7216 9.33456 46.6391 9.71323 46.6525 10.0946C46.6525 11.3831 47.4519 12.6511 49.5369 12.6511M34.3092 12.4725H36.4587V6.05635H42.8338V12.4725H44.9833V3.92447H34.3209L34.3092 12.4725ZM28.0805 11.1284C27.1668 11.1284 26.6163 10.7213 26.6163 10.0068C26.6163 8.83541 28.019 8.50743 29.7438 8.50743H30.1626V9.66415C30.1626 10.203 29.5125 11.1459 28.0951 11.1459M27.363 12.6599C28.6808 12.6599 29.7058 12.1562 30.2124 11.3099H30.2446V12.4813H32.312V7.39171C32.312 4.57458 30.9269 3.68142 28.6486 3.68142C25.7202 3.68142 24.9354 5.14562 24.9032 6.53076H26.9706C27.0028 5.97729 27.363 5.32425 28.5988 5.32425C29.738 5.32425 30.145 5.90993 30.145 6.83824V7.28043H29.6589C27.3953 7.28043 26.2063 7.58791 25.4566 8.14138C25.1432 8.35915 24.8895 8.65208 24.7186 8.99332C24.5477 9.33456 24.4652 9.71323 24.4786 10.0946C24.4786 11.3831 25.278 12.6511 27.363 12.6511M15.869 12.4725H18.0185V6.05635H23.5825V3.92447H15.8544L15.869 12.4725ZM11.4208 12.4725H13.5673V3.92447H11.4208V12.4725ZM12.4779 2.57448C12.6496 2.57644 12.82 2.54407 12.9789 2.47928C13.1379 2.41449 13.2824 2.31857 13.4038 2.19717C13.5252 2.07577 13.6211 1.93133 13.6859 1.77234C13.7507 1.61335 13.783 1.44301 13.7811 1.27134C13.7811 1.10169 13.7472 0.93375 13.6814 0.777416C13.6155 0.621082 13.519 0.479519 13.3975 0.361071C13.2761 0.242624 13.1321 0.14969 12.9742 0.0877473C12.8163 0.0258051 12.6475 -0.00389148 12.4779 0.000408317C12.1376 -0.0004445 11.8105 0.132175 11.5669 0.369795C11.3232 0.607415 11.1825 0.931092 11.1748 1.27134C11.174 1.44269 11.2072 1.61249 11.2724 1.77094C11.3376 1.9294 11.4336 2.07336 11.5548 2.19453C11.6759 2.31569 11.8199 2.41165 11.9783 2.47686C12.1368 2.54208 12.3066 2.57525 12.4779 2.57448ZM9.68717 2.23185L9.66374 0.0970458H0V2.23185H3.74543V12.4813H5.9271V2.23185H9.68717Z" fill="white"/>
</svg>
