<svg width="184" height="51" viewBox="0 0 184 51" fill="none" xmlns="http://www.w3.org/2000/svg">
<path d="M0.65449 0.723105L33.2444 0.723107L33.2444 7.65855L20.3835 7.65855L20.3835 49.6079L13.1787 49.6079L13.1787 7.65855L0.65449 7.65855L0.65449 0.723105ZM39.4007 21.3948L46.3362 21.3948L46.3362 49.6079L39.4007 49.6079L39.4007 21.3948ZM38.9967 11.2946C38.9967 10.2173 39.4232 9.31947 40.2761 8.60124C41.129 7.883 42.0492 7.52389 43.0368 7.52389C44.0692 7.52389 44.9895 7.883 45.7975 8.60124C46.6055 9.31947 47.0095 10.2173 47.0095 11.2946C47.0095 12.372 46.6055 13.2698 45.7975 13.988C44.9895 14.6613 44.0692 14.998 43.0368 14.998C42.0492 14.998 41.129 14.6613 40.2761 13.988C39.4232 13.2698 38.9967 12.372 38.9967 11.2946ZM61.74 21.3948L62.4133 29.4749L62.0766 28.3976C62.8398 26.6918 63.9171 25.2328 65.3087 24.0208C66.7003 22.8088 68.1367 21.8886 69.6181 21.2601C71.1444 20.5868 72.4237 20.2501 73.4562 20.2501L73.1195 27.1182C70.9648 26.9835 69.0794 27.3875 67.4634 28.3302C65.8923 29.2729 64.6578 30.5298 63.76 32.101C62.8622 33.6721 62.4133 35.3555 62.4133 37.151L62.4133 49.6079L55.5452 49.6079L55.5452 21.3948L61.74 21.3948ZM91.0352 50.2813C88.3867 50.2813 85.9851 49.7426 83.8304 48.6652C81.6757 47.543 79.9699 45.8821 78.713 43.6825C77.4561 41.4829 76.8276 38.7671 76.8276 35.535C76.8276 32.3479 77.4785 29.6096 78.7803 27.3202C80.127 25.0308 81.8777 23.2801 84.0324 22.0681C86.232 20.8112 88.6112 20.1828 91.1699 20.1828C93.8632 20.1828 96.0628 20.7663 97.7686 21.9335C99.5193 23.0557 100.888 24.3799 101.876 25.9062L101.405 26.9835L102.078 21.3948L108.475 21.3948L108.475 49.6079L101.539 49.6079L101.539 42.5378L102.28 44.2212C102.1 44.5803 101.719 45.0965 101.135 45.7699C100.552 46.3983 99.7662 47.0717 98.7787 47.7899C97.836 48.5081 96.7137 49.1141 95.4119 49.6079C94.155 50.0568 92.6961 50.2813 91.0352 50.2813ZM92.9206 44.6252C94.4019 44.6252 95.7262 44.3558 96.8933 43.8172C98.0604 43.2785 99.048 42.5154 99.856 41.5278C100.664 40.5402 101.225 39.3731 101.539 38.0264L101.539 32.1683C101.18 30.9114 100.574 29.834 99.7213 28.9362C98.8684 27.9936 97.836 27.2529 96.6239 26.7142C95.4568 26.1755 94.155 25.9062 92.7186 25.9062C91.1025 25.9062 89.6212 26.3102 88.2745 27.1182C86.9278 27.8813 85.8504 28.9587 85.0424 30.3503C84.2344 31.7418 83.8304 33.3579 83.8304 35.1983C83.8304 36.949 84.2344 38.5426 85.0424 39.9791C85.8953 41.4156 87.0176 42.5602 88.4091 43.4131C89.8007 44.2212 91.3045 44.6252 92.9206 44.6252ZM123.948 21.3948L124.554 27.8589L124.285 26.9835C125.227 24.9635 126.686 23.3475 128.661 22.1355C130.637 20.8786 132.971 20.2501 135.664 20.2501C138.313 20.2501 140.49 21.0357 142.196 22.6068C143.946 24.1779 144.844 26.2204 144.889 28.7342L144.889 49.6079L137.954 49.6079L137.954 31.1583C137.909 29.7218 137.482 28.5547 136.674 27.6569C135.866 26.7142 134.609 26.2204 132.904 26.1755C131.377 26.1755 129.986 26.6469 128.729 27.5896C127.472 28.4873 126.484 29.7218 125.766 31.2929C125.048 32.8641 124.689 34.6821 124.689 36.747L124.689 49.6079L117.753 49.6079L117.753 21.3948L123.948 21.3948ZM165.934 50.2813C163.286 50.2813 160.884 49.7426 158.729 48.6652C156.575 47.543 154.869 45.8821 153.612 43.6825C152.355 41.4829 151.727 38.7671 151.727 35.535C151.727 32.3479 152.378 29.6096 153.679 27.3202C155.026 25.0308 156.777 23.2802 158.931 22.0681C161.131 20.8112 163.51 20.1828 166.069 20.1828C168.762 20.1828 170.962 20.7663 172.668 21.9335C174.418 23.0557 175.788 24.3799 176.775 25.9062L176.304 26.9835L176.977 21.3948L183.374 21.3948L183.374 49.6079L176.438 49.6079L176.438 42.5378L177.179 44.2212C177 44.5803 176.618 45.0965 176.034 45.7699C175.451 46.3983 174.665 47.0717 173.678 47.7899C172.735 48.5081 171.613 49.1141 170.311 49.6079C169.054 50.0568 167.595 50.2813 165.934 50.2813ZM167.82 44.6252C169.301 44.6252 170.625 44.3558 171.792 43.8172C172.959 43.2785 173.947 42.5154 174.755 41.5278C175.563 40.5402 176.124 39.3731 176.438 38.0264L176.438 32.1683C176.079 30.9114 175.473 29.834 174.62 28.9362C173.767 27.9936 172.735 27.2529 171.523 26.7142C170.356 26.1755 169.054 25.9062 167.618 25.9062C166.002 25.9062 164.52 26.3102 163.174 27.1182C161.827 27.8813 160.749 28.9587 159.941 30.3503C159.133 31.7418 158.729 33.3579 158.729 35.1983C158.729 36.949 159.133 38.5426 159.941 39.9791C160.794 41.4156 161.917 42.5602 163.308 43.4132C164.7 44.2212 166.204 44.6252 167.82 44.6252Z" fill="white"/>
</svg>
