<svg width="155" height="51" viewBox="0 0 155 51" fill="none" xmlns="http://www.w3.org/2000/svg">
<path d="M0.421267 0.361288H33.0111V7.29673H20.1503V49.2461H12.9455V7.29673H0.421267V0.361288ZM32.1063 34.8365C32.1063 32.0085 32.7797 29.4722 34.1264 27.2277C35.4731 24.9384 37.336 23.1428 39.7151 21.841C42.0943 20.5392 44.8101 19.8883 47.8626 19.8883C50.96 19.8883 53.6758 20.5392 56.0101 21.841C58.3443 23.1428 60.1399 24.9384 61.3968 27.2277C62.6986 29.4722 63.3495 32.0085 63.3495 34.8365C63.3495 37.6646 62.6986 40.2233 61.3968 42.5126C60.1399 44.802 58.3443 46.6201 56.0101 47.9667C53.6758 49.2685 50.9375 49.9194 47.7953 49.9194C44.7877 49.9194 42.0943 49.3134 39.7151 48.1014C37.3809 46.8894 35.5179 45.1611 34.1264 42.9167C32.7797 40.6273 32.1063 37.9339 32.1063 34.8365ZM39.1091 34.9039C39.1091 36.6546 39.4907 38.2481 40.2538 39.6846C41.0169 41.0762 42.0494 42.1984 43.3512 43.0513C44.653 43.8593 46.1119 44.2633 47.7279 44.2633C49.3888 44.2633 50.8702 43.8593 52.172 43.0513C53.4738 42.1984 54.4838 41.0762 55.202 39.6846C55.9652 38.2481 56.3467 36.6546 56.3467 34.9039C56.3467 33.1532 55.9652 31.582 55.202 30.1904C54.4838 28.7989 53.4738 27.6766 52.172 26.8237C50.8702 25.9708 49.3888 25.5444 47.7279 25.5444C46.067 25.5444 44.5857 25.9708 43.2839 26.8237C41.9821 27.6766 40.9496 28.8213 40.1865 30.2578C39.4682 31.6494 39.1091 33.1981 39.1091 34.9039ZM80.574 50.3908C77.9704 50.3908 75.8381 49.6052 74.1772 48.0341C72.5163 46.4629 71.6409 44.4429 71.5512 41.974V21.033H78.4866V39.4826C78.5764 40.9191 78.9804 42.1086 79.6986 43.0513C80.4617 43.9491 81.6738 44.4205 83.3347 44.4653C84.8609 44.4653 86.2076 44.0165 87.3748 43.1187C88.5868 42.176 89.5295 40.9191 90.2028 39.3479C90.921 37.7319 91.2801 35.8914 91.2801 33.8265V21.033H98.2156V49.2461H91.9535L91.4148 42.7147L91.6842 43.792C91.1006 45.0489 90.2701 46.1936 89.1928 47.2261C88.1154 48.2136 86.8361 48.9768 85.3547 49.5154C83.8734 50.099 82.2798 50.3908 80.574 50.3908ZM115.03 21.033L115.703 29.1131L115.366 28.0357C116.13 26.3299 117.207 24.871 118.598 23.659C119.99 22.447 121.427 21.5267 122.908 20.8983C124.434 20.2249 125.713 19.8883 126.746 19.8883L126.409 26.7564C124.255 26.6217 122.369 27.0257 120.753 27.9684C119.182 28.9111 117.948 30.168 117.05 31.7391C116.152 33.3103 115.703 34.9936 115.703 36.7892V49.2461H108.835V21.033H115.03ZM142.826 49.8521C140.761 49.8521 138.764 49.493 136.833 48.7748C134.903 48.0116 133.31 46.9118 132.053 45.4754L135.015 41.57C136.227 42.6922 137.439 43.5451 138.652 44.1287C139.908 44.6674 141.098 44.9367 142.22 44.9367C143.118 44.9367 143.926 44.8469 144.644 44.6674C145.363 44.4429 145.946 44.0838 146.395 43.59C146.844 43.0962 147.068 42.4453 147.068 41.6373C147.068 40.6946 146.754 39.9539 146.126 39.4153C145.497 38.8766 144.689 38.4277 143.702 38.0686C142.714 37.7095 141.659 37.3728 140.537 37.0586C138.158 36.2954 136.362 35.2181 135.15 33.8265C133.938 32.39 133.332 30.7067 133.332 28.7764C133.332 27.2951 133.691 25.9035 134.409 24.6017C135.173 23.255 136.317 22.1552 137.843 21.3023C139.37 20.4494 141.255 20.0229 143.5 20.0229C145.565 20.0229 147.383 20.2698 148.954 20.7636C150.525 21.2125 151.984 21.9981 153.33 23.1203L150.637 27.2951C149.829 26.4871 148.864 25.881 147.742 25.477C146.664 25.0281 145.677 24.7812 144.779 24.7364C143.971 24.7364 143.23 24.871 142.557 25.1404C141.884 25.3648 141.345 25.7239 140.941 26.2177C140.537 26.6666 140.335 27.2053 140.335 27.8337C140.29 28.7315 140.582 29.4722 141.21 30.0558C141.884 30.5945 142.736 31.0433 143.769 31.4025C144.801 31.7167 145.811 32.0534 146.799 32.4125C148.191 32.8165 149.425 33.3776 150.502 34.0958C151.58 34.7692 152.433 35.5996 153.061 36.5872C153.69 37.5748 154.004 38.8317 154.004 40.3579C154.004 42.0189 153.6 43.59 152.792 45.0714C151.984 46.5078 150.749 47.675 149.088 48.5727C147.427 49.4257 145.34 49.8521 142.826 49.8521Z" fill="white"/>
</svg>
