<svg id="Layer_1" data-name="Layer 1" xmlns="http://www.w3.org/2000/svg" viewBox="0 0 63 63"><defs><style>.cls-1{fill:#0019da;stroke:#0019da;stroke-width:1.74px;}.cls-2{fill:none;stroke:#e5e7eb;stroke-linecap:round;stroke-linejoin:round;stroke-width:1.74px;}</style></defs><circle class="cls-1" cx="31.5" cy="31.5" r="30.34"/><path class="cls-2" d="M45.71,31.5a14.2,14.2,0,1,1-4.16-10A14.3,14.3,0,0,1,45.71,31.5Z"/><path class="cls-2" d="M36.21,31a.58.58,0,0,1,.22.22.55.55,0,0,1,0,.6.58.58,0,0,1-.22.22l-8.85,4.91a.6.6,0,0,1-.29.08.57.57,0,0,1-.29-.08.66.66,0,0,1-.22-.22.6.6,0,0,1-.08-.29V26.58a.59.59,0,0,1,.88-.51Z"/></svg>