<svg width="13" height="19" viewBox="0 0 13 19" fill="none" xmlns="http://www.w3.org/2000/svg">
<path d="M2.69805 6.49883L5.3611 4.56449C5.66005 4.34571 6.02366 4.23338 6.39391 4.24542C6.84552 4.25668 7.28239 4.40836 7.6438 4.67939C8.00521 4.95041 8.2732 5.3273 8.41052 5.75766C8.56507 6.24208 8.70632 6.56946 8.83428 6.73979C9.22091 7.25562 9.72245 7.67423 10.2991 7.96241C10.8757 8.25059 11.5116 8.40039 12.1562 8.39994V10.0618C11.2982 10.0627 10.4505 9.87337 9.67441 9.50743C8.89828 9.14148 8.21292 8.60802 7.66769 7.94544L7.08855 11.2317L8.80104 12.6691L10.6481 17.7443L9.08605 18.3126L7.391 13.6562L4.57423 11.2923C4.34308 11.1057 4.16619 10.8604 4.06199 10.5822C3.9578 10.304 3.9301 10.0029 3.9818 9.71028L4.40473 7.31312L3.84221 7.72192L2.07487 10.1548L0.730469 9.17767L2.68393 6.48886L2.69805 6.49883ZM7.58626 3.82997C7.14552 3.82997 6.72284 3.65488 6.41119 3.34323C6.09954 3.03158 5.92445 2.6089 5.92445 2.16816C5.92445 1.72742 6.09954 1.30473 6.41119 0.99308C6.72284 0.681431 7.14552 0.506348 7.58626 0.506348C8.027 0.506348 8.44969 0.681431 8.76134 0.99308C9.07299 1.30473 9.24807 1.72742 9.24807 2.16816C9.24807 2.6089 9.07299 3.03158 8.76134 3.34323C8.44969 3.65488 8.027 3.82997 7.58626 3.82997ZM5.11681 14.7821L2.44629 17.9645L1.17334 16.8968L3.64611 13.9504L4.26597 12.139L5.75412 13.3854L5.11681 14.7821Z" fill="white"/>
</svg>
